<?xml version="1.0" standalone="no"?><!DOCTYPE svg PUBLIC "-//W3C//DTD SVG 1.1//EN" "http://www.w3.org/Graphics/SVG/1.1/DTD/svg11.dtd"><svg t="1704520848977" class="icon" viewBox="0 0 1024 1024" version="1.1" xmlns="http://www.w3.org/2000/svg" p-id="8017" xmlns:xlink="http://www.w3.org/1999/xlink" width="200" height="200"><path d="M803.555556 242.147556a7.480889 7.480889 0 0 0-7.480889-7.480889h-13.511111a7.480889 7.480889 0 0 0-7.480889 7.480889v326.4c0 4.124444 3.328 7.480889 7.480889 7.480888h13.511111a7.480889 7.480889 0 0 0 7.480889-7.480888V242.147556z" fill="#1296db" p-id="8018"></path><path d="M789.333333 561.777778m-42.666666 0a42.666667 42.666667 0 1 0 85.333333 0 42.666667 42.666667 0 1 0-85.333333 0Z" fill="#1296db" p-id="8019"></path><path d="M789.333333 632.888889m-28.444444 0a28.444444 28.444444 0 1 0 56.888889 0 28.444444 28.444444 0 1 0-56.888889 0Z" fill="#1296db" p-id="8020"></path><path d="M945.777778 234.666667h-117.447111L282.908444 8.248889 282.851556 8.220444h-0.028445c-0.455111-0.199111-0.910222-0.142222-1.336889-0.284444C280.149333 7.537778 278.812444 7.111111 277.333333 7.111111h-0.056889a14.535111 14.535111 0 0 0-5.404444 1.080889 14.848 14.848 0 0 0-3.470222 2.332444c-0.341333 0.256-0.739556 0.398222-1.052445 0.711112a13.738667 13.738667 0 0 0-3.128889 4.664888V15.928889c-0.113778 0.256-0.085333 0.568889-0.170666 0.824889l-157.610667 222.151111c-0.085333 0.113778-0.085333 0.284444-0.170667 0.398222a28.017778 28.017778 0 0 0-13.824 23.808v56.888889a28.444444 28.444444 0 0 0 28.444445 28.444444h42.524444L57.770667 967.111111H7.111111v56.888889h539.249778v-56.888889h-49.493333l-105.614223-618.666667H945.777778a28.444444 28.444444 0 0 0 28.444444-28.444444v-56.888889a28.444444 28.444444 0 0 0-28.444444-28.444444z m-619.207111 113.777777L277.333333 387.953778 228.124444 348.444444h98.446223zM277.333333 605.866667l104.305778 68.380444-104.305778 56.888889-104.305777-56.888889L277.333333 605.866667z m-103.509333 20.195555l13.482667-79.189333 53.077333 34.787555-66.56 44.401778z m140.458667-44.401778l53.191111-34.844444 13.568 79.331556-66.759111-44.487112z m-36.949334-24.632888l-80.440889-53.617778 80.440889-66.048 80.440889 66.048-80.440889 53.617778z m-72.903111-110.563556l10.296889-60.501333 32.170667 26.396444-42.467556 34.104889z m103.338667-34.076444l32.199111-26.424889 10.353778 60.586666-42.552889-34.161777zM144.298667 234.666667L263.111111 67.185778V177.777778h-56.888889a28.444444 28.444444 0 0 0-28.444444 28.444444v28.444445H144.298667z m15.075555 476.103111l77.653334 42.353778-93.582223 51.029333 15.928889-93.383111zM439.267556 967.111111H115.683556l19.512888-114.460444L277.333333 775.111111l142.392889 77.681778 19.541334 114.318222z m-43.804445-256.426667l15.985778 93.610667-93.809778-51.171555 77.824-42.439112zM376.888889 234.666667v-28.444445a28.444444 28.444444 0 0 0-28.444445-28.444444h-56.888888V42.638222L754.147556 234.666667H376.888889z m56.888889 85.333333h-32.995556v-56.888889h32.995556v56.888889z m85.333333 0h-56.888889v-56.888889h56.888889v56.888889z m85.333333 0h-56.888888v-56.888889h56.888888v56.888889z m85.333334 0h-56.888889v-56.888889h56.888889v56.888889z m85.333333 0h-56.888889v-56.888889h56.888889v56.888889z m85.333333 0h-56.888888v-56.888889h56.888888v56.888889z m85.333334-14.222222a14.222222 14.222222 0 0 1-14.222222 14.222222h-42.666667v-56.888889h42.666667a14.222222 14.222222 0 0 1 14.222222 14.222222v28.444445z" fill="#1296db" p-id="8021"></path><path d="M348.444444 206.222222h-56.888888a28.444444 28.444444 0 0 0-28.444445 28.444445v56.888889a28.444444 28.444444 0 0 0 28.444445 28.444444h85.333333v-113.777778h-28.444445z" fill="#1296db" p-id="8022"></path><path d="M320 206.222222h56.888889v113.777778h-56.888889z" fill="#1296db" p-id="8023"></path><path d="M991.118222 682.666667v-28.444445H587.548444v28.444445h24.007112v70.229333h-24.007112v28.444444h403.569778v-28.444444H967.111111V682.666667z" fill="#1296db" p-id="8024"></path></svg>