<?xml version="1.0" standalone="no"?><!DOCTYPE svg PUBLIC "-//W3C//DTD SVG 1.1//EN" "http://www.w3.org/Graphics/SVG/1.1/DTD/svg11.dtd"><svg t="1704520761543" class="icon" viewBox="0 0 1222 1024" version="1.1" xmlns="http://www.w3.org/2000/svg" p-id="6559" xmlns:xlink="http://www.w3.org/1999/xlink" width="238.671875" height="200"><path d="M270.95008 401.578483a134.782663 134.782663 0 1 1 0-269.514039 134.782663 134.782663 0 0 1 0 269.514039z m0-226.84312a92.316893 92.316893 0 1 0 0 184.223488 94.214518 94.214518 0 0 0 37.029331-7.846936 92.316893 92.316893 0 0 0-0.307723-169.247637 93.44521 93.44521 0 0 0-36.721608-7.128915z" p-id="6560" fill="#1296db"></path><path d="M1201.196634 587.186724H457.891787a21.33546 21.33546 0 1 1 0-42.670919h721.969387V42.670919H314.903178v112.831758a21.33546 21.33546 0 0 1-42.670919 0V21.386747A21.33546 21.33546 0 0 1 293.567718 0.051287h907.782777a21.284172 21.284172 0 0 1 21.284173 21.33546v544.515804a21.284172 21.284172 0 0 1-21.438034 21.284173z" p-id="6561" fill="#1296db"></path><path d="M378.704408 1023.845626a89.64996 89.64996 0 0 1-72.673909-37.029332 21.69447 21.69447 0 0 1-2.769507-5.128716l-43.696662-122.576318-43.850524 122.576318a22.207341 22.207341 0 0 1-2.666933 5.128716 88.829366 88.829366 0 0 1-72.571335 37.183193 89.137088 89.137088 0 0 1-73.597078-139.654943l78.212923-180.274377a91.547585 91.547585 0 0 1-103.138484 5.590301 88.008771 88.008771 0 0 1-39.542402-55.184987 89.137088 89.137088 0 0 1 11.283175-67.904203l113.447204-181.505268a89.393524 89.393524 0 0 1 75.751139-42.004186h136.013555a88.880653 88.880653 0 0 1 63.288359 26.20774l5.128716 5.128716 72.981632-72.930345a89.444811 89.444811 0 0 1 137.55217 13.591098c23.745956 35.080419 18.25823 83.290352-13.026939 114.626808l-134.577515 134.013356a89.906396 89.906396 0 0 1-75.648564 25.284571v91.137288l48.312507 153.348616 19.33526 49.799835a89.034514 89.034514 0 0 1-31.387744 103.753929 87.495899 87.495899 0 0 1-52.159044 16.82219z m-36.362598-59.749545a47.799635 47.799635 0 0 0 63.44222 8.308521 46.414882 46.414882 0 0 0 16.617041-54.05667l-19.694271-50.928152-49.799835-157.759312a22.874074 22.874074 0 0 1-0.974456-6.410895v-123.909785a21.33546 21.33546 0 0 1 31.951903-18.463379 46.722605 46.722605 0 0 0 56.415878-7.487925l134.269792-134.269792c16.617041-16.617041 20.001993-42.670919 7.898223-60.570139a46.773892 46.773892 0 0 0-71.802028-7.334064L422.606219 439.22326a21.284172 21.284172 0 0 1-30.156851 0l-19.950707-19.950706a46.671318 46.671318 0 0 0-33.131507-13.693673H202.892015a46.158446 46.158446 0 0 0-39.439828 21.797044L49.902409 609.035055a46.568744 46.568744 0 0 0-5.949311 35.593291 45.645575 45.645575 0 0 0 20.514865 28.669524 47.286764 47.286764 0 0 0 62.980636-12.514068l20.514865-67.699054a21.33546 21.33546 0 0 1 41.74775 6.205746v103.959079a20.873875 20.873875 0 0 1-1.79505 8.462381L105.138683 903.218219a19.33526 19.33526 0 0 1-2.359209 4.102973 46.158446 46.158446 0 0 0 10.257432 64.929548 47.286764 47.286764 0 0 0 63.390933-8.103372l62.878061-175.761106a21.386747 21.386747 0 0 1 20.104568-14.155256 21.284172 21.284172 0 0 1 20.053281 14.155256zM880.036422 343.316266a21.33546 21.33546 0 0 1-15.078426-6.257034l-73.904801-73.904801-73.956088 73.904801a21.33546 21.33546 0 0 1-30.156852-30.156851l89.034514-88.983227a21.284172 21.284172 0 0 1 30.156852 0l73.904801 73.904801 149.963663-149.963663a21.33546 21.33546 0 0 1 30.156852 30.156851l-165.042089 165.042089a21.33546 21.33546 0 0 1-15.078426 6.257034zM461.943473 127.961471a21.027737 21.027737 0 0 1-21.284173-21.33546 20.514865 20.514865 0 0 1 1.692477-8.052085 20.976449 20.976449 0 0 1 39.234679 0 20.514865 20.514865 0 0 1 1.692477 8.052085 21.027737 21.027737 0 0 1-21.33546 21.33546zM739.253161 127.961471a21.079024 21.079024 0 0 1-21.33546-21.33546 20.514865 20.514865 0 0 1 1.692476-8.052085 21.69447 21.69447 0 0 1 4.513271-7.077628 22.258629 22.258629 0 0 1 30.259426 0 21.69447 21.69447 0 0 1 4.51327 7.077628 20.104568 20.104568 0 0 1 0 16.155457 24.7717 24.7717 0 0 1-4.51327 7.077628 21.079024 21.079024 0 0 1-15.129713 6.15446zM867.214631 511.897169h-170.632389a21.33546 21.33546 0 0 1-21.33546-21.335459V405.271158a21.33546 21.33546 0 0 1 21.33546-21.335459h170.632389a21.33546 21.33546 0 0 1 21.33546 21.335459v85.290552a21.33546 21.33546 0 0 1-21.33546 21.335459z m-149.29693-42.619632h127.961471v-42.670919h-127.961471zM1059.182481 511.897169h-128.217907a21.33546 21.33546 0 0 1-21.335459-21.335459V362.600239a21.33546 21.33546 0 0 1 21.335459-21.33546h128.217907a21.33546 21.33546 0 0 1 21.335459 21.33546v127.961471a21.33546 21.33546 0 0 1-21.335459 21.335459z m-106.626011-42.619632h85.4957V383.935699h-85.4957z" p-id="6562" fill="#1296db"></path></svg>