<?xml version="1.0" standalone="no"?><!DOCTYPE svg PUBLIC "-//W3C//DTD SVG 1.1//EN" "http://www.w3.org/Graphics/SVG/1.1/DTD/svg11.dtd"><svg t="1704460233873" class="icon" viewBox="0 0 1024 1024" version="1.1" xmlns="http://www.w3.org/2000/svg" p-id="2556" xmlns:xlink="http://www.w3.org/1999/xlink" width="200" height="200"><path d="M868.00896 131.06176H155.56608a23.88992 23.88992 0 0 0-23.8848 23.8848v712.44288a23.8848 23.8848 0 0 0 23.8848 23.8848h712.44288a23.87968 23.87968 0 0 0 23.8848-23.8848V154.94656a23.8848 23.8848 0 0 0-23.8848-23.8848z m-688.55808 47.7696h308.65408v664.67328H179.45088V178.83136z m664.67328 664.67328h-308.25472V178.83136h308.25472v664.67328z" fill="" p-id="2557"></path><path d="M404.02432 437.0432L348.25216 381.27104l-0.03584-0.03072a14.49984 14.49984 0 0 0-2.1504-1.75616c-0.3328-0.22016-0.6912-0.37376-1.03936-0.5632-0.47104-0.26112-0.93184-0.54272-1.4336-0.75264-0.42496-0.17408-0.8704-0.27136-1.3056-0.4096-0.45568-0.13824-0.896-0.31232-1.37216-0.40448a13.84448 13.84448 0 0 0-2.34496-0.23552c-0.1536-0.00512-0.29696-0.04608-0.45568-0.04608-0.15872 0-0.31232 0.04096-0.46592 0.04608a14.20288 14.20288 0 0 0-2.3296 0.23552c-0.45568 0.09216-0.88576 0.26112-1.32608 0.39424-0.45568 0.13312-0.91648 0.23552-1.3568 0.41984-0.4864 0.2048-0.93184 0.48128-1.38752 0.73216-0.36352 0.19968-0.73728 0.35328-1.08032 0.58368a14.44864 14.44864 0 0 0-2.10432 1.7152l-0.08704 0.06656-0.01024 0.01024-55.7568 55.76704a14.33088 14.33088 0 1 0 20.26496 20.26496l31.31392-31.31392v206.49472a14.33088 14.33088 0 1 0 28.66176 0v-206.4896l31.3088 31.31392c2.79552 2.79552 6.46656 4.1984 10.13248 4.1984a14.336 14.336 0 0 0 10.13248-24.46848zM630.76352 586.84416l55.7568 55.7568c0.67072 0.67584 1.41312 1.27488 2.21184 1.81248 0.31744 0.20992 0.66048 0.35328 0.98816 0.53248 0.4864 0.27136 0.95744 0.5632 1.46944 0.77824 0.45568 0.18432 0.93184 0.29184 1.39264 0.43008 0.42496 0.128 0.83456 0.29184 1.28 0.37376a13.952 13.952 0 0 0 5.61152 0c0.44032-0.08704 0.84992-0.24576 1.27488-0.37376 0.46592-0.13824 0.94208-0.24576 1.39264-0.43008 0.51712-0.21504 0.98304-0.50688 1.46944-0.77312 0.32768-0.18432 0.67584-0.32256 0.99328-0.5376 0.7936-0.53248 1.54112-1.13664 2.21184-1.81248l55.7568-55.7568a14.32064 14.32064 0 0 0 0-20.26496 14.32064 14.32064 0 0 0-20.26496 0l-31.3088 31.3088v-206.4896a14.336 14.336 0 0 0-28.66176 0v206.49472l-31.3088-31.3088a14.32064 14.32064 0 1 0-20.26496 20.25984z" fill="" p-id="2558"></path></svg>