<?xml version="1.0" standalone="no"?><!DOCTYPE svg PUBLIC "-//W3C//DTD SVG 1.1//EN" "http://www.w3.org/Graphics/SVG/1.1/DTD/svg11.dtd"><svg t="1704533737057" class="icon" viewBox="0 0 1024 1024" version="1.1" xmlns="http://www.w3.org/2000/svg" p-id="11106" xmlns:xlink="http://www.w3.org/1999/xlink" width="200" height="200"><path d="M777.117235 838.363626c-11.34262 0-16.923909-5.67131-16.923909-16.923909V489.44304c0-56.262994-39.429106-95.60208-84.439502-95.60208H282.002885c-45.010395 0-84.349481 39.429106-84.349481 95.692101v331.906656c0 11.252599-5.67131 16.923909-16.923909 16.923909s-16.833888-5.67131-16.833888-16.923909V489.44304C163.805586 416.346158 214.487292 360.083164 282.002885 360.083164h393.750939C737.688129 360.083164 793.951123 416.346158 793.951123 489.533061v331.906656c0 11.252599-11.252599 16.923909-16.923909 16.923909z" fill="#1296db" p-id="11107"></path><path d="M861.466716 843.944915H96.289993c-5.67131 0-11.252599-5.67131-11.252599-16.923909 0-11.162578 5.67131-16.833888 16.923909-16.833888H861.466716c11.252599 0 16.923909 5.67131 16.923909 16.923909 0 11.162578-11.34262 16.833888-16.923909 16.833888z" fill="#1296db" p-id="11108"></path><path d="M518.307461 843.944915h-225.051977a38.438878 38.438878 0 0 1-39.429107-39.429106V596.477761c0-22.505198 16.923909-39.429106 39.429107-39.429107h219.380667c22.505198 0 39.429106 16.923909 39.429107 39.429107v208.218089c5.581289 22.505198-16.923909 39.339086-33.757797 39.339086z m-225.051977-253.228485c-5.67131 0-5.67131 0-5.67131 5.67131v208.218089c0 5.581289 0 5.581289 5.67131 5.581289h219.380667c5.67131 0 5.67131 0 5.67131-5.671309V596.477761c0-5.67131 0-5.67131-5.67131-5.67131H293.165463z m286.89626-196.87547H478.878355a38.438878 38.438878 0 0 1-39.429107-39.429106v-56.262994c0-22.505198 16.923909-39.339086 39.429107-39.339086h101.273389c22.505198 0 39.429106 16.923909 39.429107 39.429106v56.262995c0 22.505198-16.923909 39.339086-39.429107 39.339085zM478.878355 292.567571c-5.67131 0-5.67131 0-5.67131 5.671309v56.262995C473.297066 360.083164 473.297066 360.083164 478.878355 360.083164h101.273389c5.67131 0 5.67131 0 5.67131-5.67131v-56.262994c0-5.581289 0-5.581289-5.67131-5.581289H478.878355z m298.23888 191.29418c-11.34262 0-16.923909-5.67131-16.923909-16.923908V90.020791l-61.934304-5.67131-5.581289 286.986282c0 11.252599-5.67131 16.923909-16.923909 16.923908S658.919937 382.588361 658.919937 371.335763V90.020791c0-22.505198 16.923909-39.429106 39.429106-39.429106h61.844283c22.505198 0 39.429106 16.923909 39.429107 39.429106v377.007072c-5.67131 5.581289-16.923909 16.833888-22.505198 16.833888z" fill="#1296db" p-id="11109"></path><path d="M405.781472 838.363626c-11.252599 0-16.923909-5.67131-16.923908-16.923909v-247.557175c0-11.252599 5.67131-16.923909 16.923908-16.923908s16.833888 5.67131 16.833888 16.923908v247.557175c0 11.252599-11.252599 16.923909-16.923908 16.923909z m135.031187-348.920586h-270.062373c-11.34262 0-16.923909-5.581289-16.923909-16.833888s5.67131-16.923909 16.923909-16.923908h264.391063c11.252599 0 16.923909 5.67131 16.923909 16.923908s-5.67131 16.923909-11.252599 16.923909z" fill="#1296db" p-id="11110"></path></svg>