<?xml version="1.0" standalone="no"?><!DOCTYPE svg PUBLIC "-//W3C//DTD SVG 1.1//EN" "http://www.w3.org/Graphics/SVG/1.1/DTD/svg11.dtd"><svg t="1704520884558" class="icon" viewBox="0 0 1100 1024" version="1.1" xmlns="http://www.w3.org/2000/svg" p-id="9097" xmlns:xlink="http://www.w3.org/1999/xlink" width="214.84375" height="200"><path d="M900.375851 927.922087v90.862509h-699.627329v-90.862509h699.627329zM1054.828124 0.235329a45.431255 45.431255 0 0 1 45.412174 43.898435l0.019081 1.52646v778.456248c0 24.474236-19.615006 44.585342-43.904795 45.399453l-1.52646 0.025441H46.506137c-24.474236 0-44.585342-19.615006-45.399454-43.904795l-0.025441-1.526459V45.666584C1.081242 21.179627 20.696248 1.068522 44.986037 0.25441l1.52646-0.019081h1008.321987zM553.341615 139.925466c-161.582112 0-292.571429 130.989317-292.571429 292.571428s130.989317 292.571429 292.571429 292.571429 292.571429-130.989317 292.571428-292.571429-130.989317-292.571429-292.571428-292.571428z m0 50.881987c133.482534 0 241.689441 108.206907 241.689441 241.689441s-108.206907 241.689441-241.689441 241.689441-241.689441-108.206907-241.689441-241.689441 108.206907-241.689441 241.689441-241.689441z m-3.180124 339.828075c-9.794783 0-17.808696 3.116522-24.041739 9.349565-7.123478 6.233043-10.24 14.246957-10.24 24.041739 0 9.794783 3.116522 17.808696 10.24 24.041739 6.233043 6.233043 14.246957 9.794783 24.041739 9.794783 9.794783 0 17.808696-3.116522 24.932174-9.349565 6.233043-6.233043 9.794783-14.692174 9.794782-24.486957s-3.561739-17.808696-9.794782-24.041739c-6.678261-6.233043-15.137391-9.349565-24.932174-9.349565z m30.274782-250.657391h-60.104348l11.130435 226.615652h37.843479l11.130434-226.615652z" fill="#d81e06" p-id="9098"></path></svg>