<?xml version="1.0" standalone="no"?><!DOCTYPE svg PUBLIC "-//W3C//DTD SVG 1.1//EN" "http://www.w3.org/Graphics/SVG/1.1/DTD/svg11.dtd"><svg t="1704460263130" class="icon" viewBox="0 0 1024 1024" version="1.1" xmlns="http://www.w3.org/2000/svg" p-id="3670" xmlns:xlink="http://www.w3.org/1999/xlink" width="200" height="200"><path d="M104.012 659.881h249.462v161.248h-249.462v-161.248z" fill="#1296db" p-id="3671"></path><path d="M711.543 522.342h168.838v246.615h-168.838v-246.615z" fill="#1296db" p-id="3672"></path><path d="M635.188 477.763l76.356-262.742h216.738v355.698h-293.093v-92.956zM712.019 437.45h119.987v-162.674h-88.731l-31.256 120.162v42.512z" fill="#1296db" p-id="3673"></path><path d="M612.421 722.48h362.338v189.705h-362.338v-189.705z" fill="#1296db" p-id="3674"></path><path d="M208.347 284.258h53.117v164.094h-53.117v-164.094z" fill="#1296db" p-id="3675"></path><path d="M181.787 432.229h97.699v90.114h-97.699v-90.114z" fill="#1296db" p-id="3676"></path><path d="M541.283 337.143h25.61v47.663h-25.61v-47.663z" fill="#1296db" p-id="3677"></path><path d="M435.996 297.305h32.724v63.67h-32.724v-63.67z" fill="#1296db" p-id="3678"></path><path d="M326.442 256.755h25.61v40.55h-25.61v-40.55z" fill="#1296db" p-id="3679"></path><path d="M45.807 218.054l44.935-124.63 639.803 189.255-74.010 205.274-610.729-269.899zM633.764 303.708h-35.57v66.871h35.57v-66.871zM522.787 269.561h-27.743v55.489h27.743v-55.489zM408.963 243.951h-25.611v42.684h25.61v-42.684zM307.945 211.227h-28.455v32.724h28.455v-32.724zM248.188 227.589h-19.919v16.361h19.919v-16.361zM219.732 185.616h-19.919v15.651h19.919v-15.651zM164.243 175.657h-29.879v35.57h29.879v-35.57z" fill="#1296db" p-id="3680"></path><path d="M265.47 577.698c0 0 14.302-13.889 9.95 2.277-4.354 16.171-22.23 46.717-46.327 42.907-24.096-3.808-35.6-16.090-38.475-28.137-2.877-12.049-1.788-23.475 0.698-26.815 2.487-3.342 17.877-24.018 18.189-24.173 0.31-0.156 1.011-8.55 1.011-8.55s-4.586-7.305-3.264-13.214 4.197-22.229 21.066-21.142 21.143 15.546 20.986 20.053c-0.156 4.507-2.409 15.7-14.378 26.273-11.971 10.571-21.765 23.32-22.541 27.126-0.778 3.811-1.244 18.036 7.305 23.398 8.55 5.364 18.033 10.65 30.625-2.176 12.592-12.828 15.157-17.827 15.157-17.827zM142.349 659.881c0 0 88.574-56.333 91.908-56.173 2.628 0.127 7.26 1.406 15.423 5.574 1.535 0.782 72.921 50.598 72.921 50.598h23.714l-100.133-72.213c0 0-6.428-6.525-20.075 0-1.603 0.766-116.836 72.213-116.836 72.213h33.080z" fill="#1296db" p-id="3681"></path><path d="M265.47 577.698c0 0 14.302-13.889 9.95 2.277-4.354 16.171-22.23 46.717-46.327 42.907-24.096-3.808-35.6-16.090-38.475-28.137-2.877-12.049-1.788-23.475 0.698-26.815 2.487-3.342 17.877-24.017 18.189-24.173 0.31-0.156 1.011-8.55 1.011-8.55s-4.586-7.305-3.264-13.214 4.197-22.229 21.066-21.142 21.143 15.546 20.986 20.053c-0.156 4.507-2.409 15.7-14.378 26.273-11.971 10.571-21.765 23.32-22.541 27.126-0.778 3.811-1.244 18.036 7.305 23.398 8.55 5.364 18.033 10.65 30.625-2.176 12.592-12.828 15.157-17.827 15.157-17.827z" fill="#1296db" p-id="3682"></path></svg>