<?xml version="1.0" standalone="no"?><!DOCTYPE svg PUBLIC "-//W3C//DTD SVG 1.1//EN" "http://www.w3.org/Graphics/SVG/1.1/DTD/svg11.dtd"><svg t="1704606762176" class="icon" viewBox="0 0 1024 1024" version="1.1" xmlns="http://www.w3.org/2000/svg" p-id="14327" xmlns:xlink="http://www.w3.org/1999/xlink" width="200" height="200"><path d="M831.146667 477.354667H896V960H128V64.512h64.853333V318.293333h286.762667V164.864h64.853333v477.098667h286.762667c-0.128 0-0.128-164.608-0.128-164.608zM192.853333 66.218667H128m64.853333 377.429333h99.84V354.56H192.853333v89.088z m186.88 0h99.882667V354.56h-99.84v89.088z m-186.88 136.32h99.84v-89.173333H192.853333v89.173333z m186.88 0h99.882667v-89.173333h-99.84v89.173333z m-186.88 136.32h99.84v-89.216H192.853333v89.173333z m186.88 0h99.882667v-89.216h-99.84v89.173333z m-186.88 136.277333h99.84v-89.173333H192.853333v89.173333z m186.88 0h99.882667v-89.173333h-99.84v89.173333z m164.778667-74.282666h99.84v-89.088h-99.84v89.088z m186.752 0h99.84v-89.088h-99.84v89.088z m-186.752 136.192h99.84v-89.088h-99.84v89.088z m186.752 0h99.84v-89.088h-99.84v89.088z" fill="#707070" p-id="14328"></path></svg>